<svg width="249" height="254" viewBox="0 0 249 254" fill="none" xmlns="http://www.w3.org/2000/svg">
  <defs>
    <linearGradient id="edge-grad" x1="9.71667" y1="92.4132" x2="248.291" y2="92.4132" gradientUnits="userSpaceOnUse">
      <stop offset="0.221154" stop-color="#5CBBFF"/>
      <stop offset="1" stop-color="#ACD653"/>
    </linearGradient>
  </defs>
  <path d="M162.029 130.444C162.029 122.39 154.097 111.224 150.131 106.648L107.115 84.683L10.1017 141.884C6.44085 91.5472 29.779 65.4634 42.1345 49.447C54.49 33.4306 105.285 -3.63589 172.554 21.0751C239.822 45.7861 246.687 112.14 247.602 121.292C248.517 130.444 251.263 140.969 232.501 155.613C213.739 170.256 198.18 173.917 178.96 171.171C159.741 168.426 153.792 159.274 153.792 155.613C153.792 151.952 162.029 140.512 162.029 130.444Z" fill="url(#edge-grad)"/>
  <path d="M82.8619 71.4123C127.891 67.0193 151.961 100.394 158.368 117.631C138.599 93.8353 114.742 104.97 105.285 113.513L89.7261 160.189L135 253C116 256.5 74.1673 242.101 42.1346 216.017C16.5084 195.15 8.88151 150.579 8.27136 130.902C10.1018 70.9294 37.833 75.8054 82.8619 71.4123Z" fill="#5CBBFF"/>
  <path d="M227.925 196.34C227.192 194.144 224.569 195.425 223.349 196.34C212.823 200.459 198.18 204.577 172.554 201.831C146.928 199.086 115.81 187.188 104.37 157.901C95.2175 134.471 104.217 116.106 109.861 109.852C99.7936 113.055 78.6519 130.17 74.6249 173.002C70.598 215.834 110.713 244.805 131 253.5C200.557 250.297 228.84 199.086 227.925 196.34Z" fill="#0072C6"/>
</svg>
