<?xml version="1.0" encoding="utf-8"?>
<!-- Generator: Adobe Illustrator 28.3.0, SVG Export Plug-In . SVG Version: 6.00 Build 0)  -->
<svg version="1.1" id="CMYK" xmlns="http://www.w3.org/2000/svg" xmlns:xlink="http://www.w3.org/1999/xlink" x="0px" y="0px"
	 viewBox="0 0 283.46 121.96" style="enable-background:new 0 0 283.46 121.96;" xml:space="preserve">
<style type="text/css">
	.st0{fill:#E3000F;}
</style>
<g>
	<g>
		<g>
			<g>
				<path d="M13.46,86.5c10.43,0,12.59,9.09,12.59,17.47c0,8.43-2.16,17.47-12.59,17.47H0.51c-0.31,0-0.51-0.2-0.51-0.51V87.02
					c0-0.31,0.21-0.51,0.51-0.51H13.46z M12.54,91.75H7.14c-0.21,0-0.31,0.1-0.31,0.31v23.79c0,0.26,0.05,0.31,0.26,0.31h5.5
					c5.24,0,6.42-5.24,6.42-12.43C19.01,96.78,17.83,91.75,12.54,91.75z"/>
				<path d="M50.65,112.97c-0.05-0.26-0.15-0.36-0.41-0.36H40.22c-0.26,0-0.46,0.1-0.51,0.36l-1.95,7.96
					c-0.15,0.41-0.36,0.51-0.67,0.51h-5.96c-0.26,0-0.41-0.1-0.41-0.31c0-0.05,0-0.15,0.05-0.2c1.54-6.22,7.14-26.77,9.3-33.91
					c0.1-0.31,0.31-0.51,0.62-0.51h9.81c0.36,0,0.51,0.21,0.62,0.51c2.21,7.66,7.91,29.39,8.99,33.91c0,0.05,0,0.15,0,0.2
					c0,0.21-0.1,0.31-0.36,0.31h-6.58c-0.36,0-0.57-0.1-0.67-0.51L50.65,112.97z M49.37,107.42c0.2,0,0.31-0.05,0.31-0.31
					c-0.56-2.62-2.41-10.79-3.39-14.8c-0.05-0.21-0.2-0.26-0.87-0.26c-0.67,0-0.82,0.05-0.87,0.26c-1.08,4.01-3.08,12.18-3.65,14.8
					c0,0.26,0.1,0.31,0.31,0.31H49.37z"/>
				<path d="M70.94,92.46c0-0.21-0.1-0.31-0.31-0.31h-7.15c-0.31,0-0.51-0.2-0.51-0.51v-4.62c0-0.31,0.2-0.51,0.51-0.51h21.8
					c0.31,0,0.51,0.21,0.51,0.51v4.62c0,0.31-0.21,0.51-0.51,0.51h-7.2c-0.2,0-0.31,0.1-0.31,0.31v28.47c0,0.31-0.21,0.51-0.51,0.51
					h-5.81c-0.31,0-0.51-0.2-0.51-0.51V92.46z"/>
				<path d="M108.5,112.97c-0.05-0.26-0.15-0.36-0.41-0.36H98.07c-0.26,0-0.46,0.1-0.51,0.36l-1.95,7.96
					c-0.15,0.41-0.36,0.51-0.67,0.51h-5.96c-0.26,0-0.41-0.1-0.41-0.31c0-0.05,0-0.15,0.05-0.2c1.54-6.22,7.14-26.77,9.3-33.91
					c0.1-0.31,0.31-0.51,0.62-0.51h9.81c0.36,0,0.51,0.21,0.62,0.51c2.21,7.66,7.91,29.39,8.99,33.91c0,0.05,0,0.15,0,0.2
					c0,0.21-0.1,0.31-0.36,0.31h-6.58c-0.36,0-0.57-0.1-0.67-0.51L108.5,112.97z M107.22,107.42c0.2,0,0.31-0.05,0.31-0.31
					c-0.56-2.62-2.41-10.79-3.39-14.8c-0.05-0.21-0.2-0.26-0.87-0.26s-0.82,0.05-0.87,0.26c-1.08,4.01-3.08,12.18-3.65,14.8
					c0,0.26,0.1,0.31,0.31,0.31H107.22z"/>
				<path d="M131.36,104.28c0,9.2,2.05,12.13,7.96,12.13c1.08,0,2.36-0.15,2.98-0.36c0.21-0.05,0.36-0.15,0.36-0.46v-13.24
					c0-0.31,0.21-0.51,0.51-0.51h5.34c0.31,0,0.51,0.21,0.51,0.51v17.19c0,0.51-0.05,0.72-0.46,0.87c-2.16,0.77-5.86,1.54-9.92,1.54
					c-10.43,0-14.59-6.32-14.59-17.73c0-11.2,4.16-18.24,14.75-18.24c2.98,0,6.78,0.36,8.17,0.87c0.2,0.1,0.36,0.15,0.36,0.46
					l-0.26,4.88c0,0.15-0.26,0.36-0.51,0.26c-1.34-0.41-4.73-0.87-6.73-0.87C133.93,91.59,131.36,94.52,131.36,104.28z"/>
				<path d="M170.69,109.21c-0.41-0.77-0.51-0.93-0.82-0.98h-3.88c-0.26,0-0.41,0.1-0.41,0.36v12.33c0,0.31-0.2,0.51-0.51,0.51
					h-5.81c-0.31,0-0.51-0.2-0.51-0.51V87.02c0-0.31,0.21-0.51,0.51-0.51h10.72c7.81,0,11.77,2.62,11.77,9.66
					c0,4.62-0.98,7.4-4.52,9.45c-0.36,0.31-0.51,0.51-0.51,0.72c0,0.51,0.26,1.08,0.82,2l6.83,12.59c0.15,0.26,0.15,0.51-0.26,0.51
					h-6.83c-0.31,0-0.46-0.1-0.62-0.46L170.69,109.21z M174.59,97.29c0-4.62-1.23-5.81-5.86-5.81h-2.49c-0.57,0-0.67,0.1-0.67,0.31
					v11.41c0,0.26,0.1,0.36,0.36,0.41h2.8C173.15,103.61,174.59,101.87,174.59,97.29z"/>
				<path d="M213.96,118.72c-2.16,2.57-5.29,3.24-10.27,3.24c-4.98,0-7.96-0.67-10.17-3.24c-2.21-2.67-3.44-8.22-3.44-14.75
					s1.23-12.07,3.44-14.75c2.21-2.57,5.34-3.24,10.33-3.24c4.98,0,7.96,0.67,10.12,3.24c2.26,2.67,3.49,8.22,3.49,14.75
					S216.22,116.05,213.96,118.72z M198.85,115.02c0.82,1.13,2.26,1.28,4.88,1.28c2.72,0,4.11-0.15,4.93-1.28
					c1.13-1.59,1.64-6.17,1.64-11.05c0-4.93-0.51-9.45-1.64-11.05c-0.82-1.13-2.21-1.28-4.83-1.28c-2.72,0-4.16,0.15-4.98,1.28
					c-1.13,1.59-1.64,6.11-1.64,11.05C197.21,108.86,197.72,113.43,198.85,115.02z"/>
				<path d="M251.08,113.58c0,5.55-5.09,8.38-12.54,8.38c-8.48,0-12.43-2.83-12.43-8.38V87.02c0-0.31,0.2-0.51,0.51-0.51h5.81
					c0.31,0,0.51,0.21,0.51,0.51v24.56c0,4.01,2.62,4.62,5.7,4.62c3.08,0,5.65-0.62,5.65-4.68V87.02c0-0.31,0.21-0.51,0.51-0.51
					h5.76c0.31,0,0.51,0.21,0.51,0.51V113.58z"/>
				<path d="M271.85,86.5c7.04,0,11.61,2.62,11.61,10.79c0,9.76-5.24,11.66-12.18,11.66h-2.7c-0.62,0-0.72,0.1-0.72,0.36v11.61
					c0,0.31-0.2,0.51-0.51,0.51h-5.81c-0.31,0-0.51-0.2-0.51-0.51V87.02c0-0.31,0.21-0.51,0.51-0.51H271.85z M270.98,103.82
					c4.11,0,5.81-1.13,5.81-6.37c0-4.73-1.7-6.01-5.7-6.01h-2.85c-0.31,0-0.36,0.15-0.36,0.36v11.66c0,0.26,0.05,0.36,0.36,0.36
					H270.98z"/>
			</g>
		</g>
	</g>
	<g>
		<polygon class="st0" points="128.06,0.62 112.22,16.65 110.51,51.58 128.06,56.6 		"/>
		<polygon class="st0" points="132.31,56.72 170.32,52.38 168.34,10.5 132.31,0 		"/>
	</g>
</g>
</svg>
